<svg width="32" height="32" viewBox="0 0 32 32" fill="none" xmlns="http://www.w3.org/2000/svg">
<path d="M10 14.6665C11.4728 14.6665 12.6667 13.4726 12.6667 11.9998C12.6667 10.5271 11.4728 9.33317 10 9.33317H4.00004V14.6665H10ZM11.3334 17.3332H4.00004V22.6665H11.3334C12.8061 22.6665 14 21.4726 14 19.9998C14 18.527 12.8061 17.3332 11.3334 17.3332ZM14.0843 15.4298C15.6319 16.3633 16.6667 18.0608 16.6667 19.9998C16.6667 22.9453 14.2788 25.3332 11.3334 25.3332H1.33337V6.6665H10C12.9456 6.6665 15.3334 9.05432 15.3334 11.9998C15.3334 13.306 14.8638 14.5025 14.0843 15.4298ZM20.6667 7.99984H28V9.99984H20.6667V7.99984ZM30.6667 19.3332H20.6667V19.6665C20.6667 21.6916 22.3083 23.3332 24.3334 23.3332C25.7583 23.3332 26.9934 22.5204 27.6002 21.3332H30.4451C29.7135 24.0224 27.2543 25.9998 24.3334 25.9998C20.8355 25.9998 18 23.1644 18 19.6665V17.6665C18 14.1686 20.8355 11.3332 24.3334 11.3332C27.8312 11.3332 30.6667 14.1686 30.6667 17.6665V19.3332ZM27.862 16.6665C27.4267 15.1274 26.0118 13.9998 24.3334 13.9998C22.655 13.9998 21.24 15.1274 20.8047 16.6665H27.862Z" fill="#82898F"/>
</svg>
