<svg width="32" height="32" viewBox="0 0 32 32" fill="none" xmlns="http://www.w3.org/2000/svg">
<path d="M16.0013 12.7332C17.2241 11.4842 18.8161 10.6665 20.668 10.6665C24.718 10.6665 28.0013 13.9497 28.0013 17.9998V27.9998H25.3347V17.9998C25.3347 15.4225 23.2453 13.3332 20.668 13.3332C18.0907 13.3332 16.0013 15.4225 16.0013 17.9998V27.9998H13.3347V11.3332H16.0013V12.7332ZM6.66797 8.6665C5.5634 8.6665 4.66797 7.77108 4.66797 6.6665C4.66797 5.56193 5.5634 4.6665 6.66797 4.6665C7.77253 4.6665 8.66797 5.56193 8.66797 6.6665C8.66797 7.77108 7.77253 8.6665 6.66797 8.6665ZM5.33464 11.3332H8.0013V27.9998H5.33464V11.3332Z" fill="#82898F"/>
</svg>
